<svg width="35" height="35" viewBox="0 0 35 35" fill="none" xmlns="http://www.w3.org/2000/svg">
<g clip-path="url(#clip0_247_671)">
<path d="M30.0706 22.9084C29.9909 22.7263 29.8622 22.57 29.6987 22.4569C27.4449 20.9083 26.9761 18.2666 26.9761 16.3223C26.9761 13.9755 28.765 11.9315 29.8315 10.9208C29.9364 10.8215 30.02 10.7019 30.0771 10.5692C30.1342 10.4365 30.1636 10.2936 30.1636 10.1491C30.1636 10.0047 30.1342 9.86178 30.0771 9.72911C30.02 9.59643 29.9364 9.4768 29.8315 9.3775C28.1475 7.78774 25.3584 6.75977 22.7261 6.75977C20.8351 6.76122 18.9868 7.32172 17.4136 8.37078C15.5783 7.14009 13.3715 6.58738 11.1727 6.80771C8.974 7.02805 6.92076 8.00765 5.36614 9.57805C4.43677 10.5268 3.70756 11.6527 3.22182 12.8889C2.73609 14.125 2.50373 15.4461 2.53857 16.7738C2.59115 19.0148 3.08965 21.2227 4.00498 23.2689C4.9203 25.315 6.2341 27.1583 7.86966 28.6911C8.85486 29.6219 10.16 30.1387 11.5154 30.1348H23.1604C23.885 30.1361 24.6021 29.9887 25.2674 29.7015C25.9327 29.4143 26.5319 28.9936 27.0279 28.4653C27.9467 27.4765 28.7414 26.3794 29.3946 25.1981C30.3269 23.4941 30.2074 23.2285 30.0706 22.9084ZM25.4713 27.0177C25.1747 27.3326 24.8165 27.5832 24.4189 27.7539C24.0214 27.9245 23.593 28.0116 23.1604 28.0098H11.5154C10.7036 28.0124 9.92185 27.7028 9.33193 27.1452C7.9003 25.8048 6.75012 24.1926 5.94857 22.4028C5.14703 20.6129 4.71018 18.6813 4.66357 16.7207C4.63451 15.679 4.81531 14.6421 5.19521 13.6717C5.5751 12.7013 6.14633 11.8173 6.87489 11.0722C7.55558 10.3768 8.36879 9.8249 9.26644 9.44919C10.1641 9.07348 11.128 8.88155 12.1011 8.88477H12.2047C13.8598 8.9022 15.4609 9.47675 16.7495 10.5157C16.938 10.6666 17.1722 10.7488 17.4136 10.7488C17.655 10.7488 17.8892 10.6666 18.0776 10.5157C19.3939 9.45448 21.0353 8.87858 22.7261 8.88477C24.4145 8.90437 26.0663 9.37927 27.5073 10.2594C25.7808 12.1878 24.8511 14.3062 24.8511 16.3223C24.8511 19.4792 25.8658 21.9973 27.7968 23.6668C27.1887 24.8909 26.4053 26.0197 25.4713 27.0177ZM17.4441 4.36914C17.7388 3.2279 18.4046 2.21705 19.3368 1.49573C20.269 0.774415 21.4146 0.383585 22.5933 0.384768H22.7261C23.0079 0.384768 23.2781 0.49671 23.4774 0.695967C23.6766 0.895225 23.7886 1.16548 23.7886 1.44727C23.7886 1.72906 23.6766 1.99931 23.4774 2.19857C23.2781 2.39783 23.0079 2.50977 22.7261 2.50977H22.5933C21.8865 2.50971 21.1999 2.7445 20.6411 3.17724C20.0824 3.60998 19.6834 4.21613 19.5067 4.90039C19.4362 5.17338 19.2602 5.4072 19.0174 5.55042C18.7745 5.69363 18.4848 5.73451 18.2118 5.66407C17.9388 5.59362 17.705 5.41761 17.5617 5.17477C17.4185 4.93192 17.3776 4.64213 17.4481 4.36914H17.4441Z" fill="white"/>
</g>
<defs>
<clipPath id="clip0_247_671">
<rect width="34" height="34" fill="white" transform="translate(0.414062 0.384766)"/>
</clipPath>
</defs>
</svg>
