<svg width="97" height="97" viewBox="0 0 97 97" fill="none" xmlns="http://www.w3.org/2000/svg">
<rect x="0.914062" y="0.481934" width="96" height="96" rx="6" fill="#323345"/>
<path d="M72.3701 46.9742L50.4227 25.0269C50.0135 24.615 49.5266 24.2884 48.9902 24.0661C48.4539 23.8438 47.8787 23.7303 47.2981 23.732H26.8158C26.1125 23.732 25.438 24.0113 24.9408 24.5086C24.4435 25.0059 24.1641 25.6804 24.1641 26.3837V46.866C24.1624 47.4466 24.276 48.0217 24.4983 48.5581C24.7205 49.0945 25.0471 49.5814 25.459 49.9906L47.4064 71.938C48.2352 72.7665 49.3591 73.2319 50.531 73.2319C51.7029 73.2319 52.8268 72.7665 53.6556 71.938L72.3701 53.2235C73.1986 52.3947 73.6641 51.2708 73.6641 50.0989C73.6641 48.927 73.1986 47.803 72.3701 46.9742ZM50.531 67.5626L29.4675 46.4925V29.0354H46.9247L67.9881 50.0989L50.531 67.5626ZM40.9583 36.9905C40.9583 37.6898 40.7509 38.3734 40.3624 38.9548C39.9739 39.5363 39.4217 39.9894 38.7757 40.257C38.1296 40.5246 37.4187 40.5946 36.7329 40.4582C36.0471 40.3218 35.4171 39.9851 34.9226 39.4906C34.4281 38.9961 34.0914 38.3661 33.955 37.6803C33.8186 36.9945 33.8886 36.2836 34.1562 35.6375C34.4238 34.9915 34.8769 34.4393 35.4584 34.0508C36.0398 33.6623 36.7234 33.4549 37.4227 33.4549C38.3604 33.4549 39.2597 33.8274 39.9227 34.4905C40.5858 35.1535 40.9583 36.0528 40.9583 36.9905Z" fill="url(#paint0_linear_202_881)"/>
<defs>
<linearGradient id="paint0_linear_202_881" x1="73.6641" y1="48.4819" x2="24.1641" y2="48.4819" gradientUnits="userSpaceOnUse">
<stop stop-color="#BBCD4D"/>
<stop offset="0.345" stop-color="#201CFF"/>
<stop offset="0.5" stop-color="#FF0000"/>
<stop offset="0.75" stop-color="#00FF38"/>
<stop offset="0.875" stop-color="#DDFF0B"/>
</linearGradient>
</defs>
</svg>
