<svg width="25" height="24" viewBox="0 0 25 24" fill="none" xmlns="http://www.w3.org/2000/svg">
<path d="M21.4141 4.11719H3.41406C3.11569 4.11719 2.82955 4.23571 2.61857 4.44669C2.40759 4.65767 2.28906 4.94382 2.28906 5.24219V17.9922C2.28906 18.4895 2.48661 18.9664 2.83824 19.318C3.18987 19.6696 3.66678 19.8672 4.16406 19.8672H20.6641C21.1613 19.8672 21.6383 19.6696 21.9899 19.318C22.3415 18.9664 22.5391 18.4895 22.5391 17.9922V5.24219C22.5391 4.94382 22.4205 4.65767 22.2096 4.44669C21.9986 4.23571 21.7124 4.11719 21.4141 4.11719ZM18.5219 6.36719L12.4141 11.9659L6.30625 6.36719H18.5219ZM4.53906 17.6172V7.79969L11.6537 14.3219C11.8612 14.5121 12.1325 14.6177 12.4141 14.6177C12.6956 14.6177 12.9669 14.5121 13.1744 14.3219L20.2891 7.79969V17.6172H4.53906Z" fill="#DBDBDB"/>
</svg>
