<svg width="193" height="85" viewBox="0 0 193 85" fill="none" xmlns="http://www.w3.org/2000/svg">
<path d="M83.5558 53.4942C83.5558 58.0194 80.1142 61.3331 75.4939 61.3331C70.8746 61.3331 67.4336 58.0189 67.4336 53.4942C67.4336 48.9701 70.8746 45.6565 75.4939 45.6565C80.1147 45.6565 83.5558 48.9707 83.5558 53.4942ZM70.7462 53.4942C70.7462 56.394 72.6903 58.2742 75.4934 58.2742C78.298 58.2742 80.241 56.394 80.241 53.4942C80.241 50.5955 78.298 48.7154 75.4934 48.7154C72.6903 48.7154 70.7462 50.5955 70.7462 53.4942Z" fill="white"/>
<path d="M89.7049 60.8553H86.582V38.5514H89.7049V60.8553Z" fill="white"/>
<path d="M96.97 60.8553H93.8477V38.5514H96.97V60.8553Z" fill="white"/>
<path d="M99.9961 53.4942C99.9961 48.5885 103.278 45.6565 107.165 45.6565C109.587 45.6565 111.211 46.7084 112.135 48.3015H112.199V46.1343H115.321V60.8552H112.199V58.6881H112.135C111.211 60.2812 109.587 61.3331 107.165 61.3331C103.278 61.3336 99.9961 58.4026 99.9961 53.4942ZM112.359 53.4942C112.359 50.6912 110.575 48.7154 107.834 48.7154C105.094 48.7154 103.31 50.6912 103.31 53.4942C103.31 56.2984 105.094 58.2742 107.834 58.2742C110.575 58.2742 112.359 56.2984 112.359 53.4942Z" fill="white"/>
<path d="M118.988 53.4942C118.988 48.8116 122.334 45.6565 127.082 45.6565C128.993 45.6565 130.618 46.1666 132.116 47.1545L130.65 49.7984C129.631 49.1615 128.356 48.6837 126.986 48.6837C124.149 48.6837 122.302 50.7224 122.302 53.4948C122.302 56.2672 124.149 58.307 126.986 58.307C128.356 58.307 129.631 57.8291 130.65 57.1911L132.116 59.8361C130.618 60.824 128.993 61.3341 127.082 61.3341C122.334 61.3336 118.988 58.1785 118.988 53.4942Z" fill="white"/>
<path d="M133.707 53.4942C133.707 48.5885 136.989 45.6565 140.876 45.6565C143.298 45.6565 144.922 46.7084 145.847 48.3015H145.91V46.1343H149.032V60.8552H145.91V58.6881H145.847C144.922 60.2812 143.298 61.3331 140.876 61.3331C136.989 61.3336 133.707 58.4026 133.707 53.4942ZM146.07 53.4942C146.07 50.6912 144.285 48.7154 141.545 48.7154C138.805 48.7154 137.02 50.6912 137.02 53.4942C137.02 56.2984 138.805 58.2742 141.545 58.2742C144.285 58.2742 146.07 56.2984 146.07 53.4942Z" fill="white"/>
<path d="M161.139 49.3528H160.66C157.603 49.3528 155.977 50.8185 155.977 54.3235V60.8552H152.855V46.1343H155.977V49.3523H156.042C156.742 47.1544 158.431 45.6892 160.916 45.6892H161.139V49.3528H161.139Z" fill="white"/>
<path d="M167.673 48.7798V56.4907C167.673 57.5415 168.119 58.0199 169.202 58.0199H169.967V60.888H168.533C165.952 60.888 164.55 59.5179 164.55 57.0959V48.7798H161.938V46.1348H164.55V40.2401H167.673V46.1348H170.668V48.7798H167.673Z" fill="white"/>
<path d="M46.1418 54.7592C45.6513 56.92 43.9033 58.262 41.5379 58.262C38.7338 58.262 36.7902 56.3819 36.7902 53.4821C36.7902 51.8192 37.4324 50.4946 38.507 49.6642L37.3949 46.9801L37.7866 47.9236L37.2913 46.729C34.9619 48.06 33.4766 50.5094 33.4766 53.4816C33.4766 58.0067 36.9176 61.3204 41.5379 61.3204C45.711 61.3204 48.9211 58.6167 49.5031 54.7586H49.0807L46.1418 54.7592Z" fill="#009FB7"/>
<path d="M78.1502 43.188C77.9261 43.188 77.6978 43.1394 77.4827 43.0363C76.7072 42.6674 76.3779 41.7392 76.7469 40.9632C77.8786 38.5878 78.8311 35.9909 79.0494 34.7672C76.5307 34.4681 68.4604 34.6541 61.2537 35.049C60.399 35.0955 59.6627 34.439 59.6157 33.5811C59.5686 32.7232 60.2262 31.9901 61.0835 31.9431C61.1274 31.9404 65.5622 31.6983 70.1333 31.5789C79.7957 31.3246 80.6261 31.8331 81.1753 32.1693C82.7478 33.1329 82.3223 35.3566 81.2001 38.3986C80.4696 40.3776 79.5922 42.2239 79.5547 42.3016C79.2888 42.8614 78.7317 43.188 78.1502 43.188Z" fill="#FFC827"/>
<path d="M62.895 51.6453H43.4243C43.0195 51.6453 42.5982 51.4275 42.4877 51.1611C42.4872 51.159 42.4861 51.1579 42.4856 51.1558L33.5436 29.6215L33.5431 29.6221L32.8628 27.9835C32.6366 27.4385 31.969 26.9929 31.3786 26.9929H30.5323H29.2109H20.4613C19.6024 26.9929 18.9062 27.6891 18.9062 28.548C18.9062 29.4069 19.6024 30.1031 20.4613 30.1031H29.2109H29.3023C29.8896 30.1031 30.5535 30.545 30.7829 31.0868L39.404 51.8424C39.4071 51.8498 39.4087 51.8556 39.4114 51.8641L40.1186 53.5666C40.3898 54.22 41.1911 54.7549 41.8994 54.7549H42.8725C42.8757 54.7549 42.8783 54.7549 42.881 54.7549H62.895C63.7545 54.7549 64.4506 54.0582 64.4506 53.1993C64.4506 52.3425 63.7545 51.6453 62.895 51.6453Z" fill="#FE4A49"/>
</svg>
