<svg width="205" height="68" viewBox="0 0 205 68" fill="none" xmlns="http://www.w3.org/2000/svg">
<path d="M88.8421 44.7631C88.8421 50.132 84.7588 54.0635 79.277 54.0635C73.7965 54.0635 69.7139 50.1313 69.7139 44.7631C69.7139 39.3954 73.7965 35.4639 79.277 35.4639C84.7594 35.4639 88.8421 39.396 88.8421 44.7631ZM73.6441 44.7631C73.6441 48.2035 75.9507 50.4342 79.2764 50.4342C82.604 50.4342 84.9093 48.2035 84.9093 44.7631C84.9093 41.3239 82.604 39.0931 79.2764 39.0931C75.9507 39.0931 73.6441 41.3239 73.6441 44.7631Z" fill="white"/>
<path d="M96.1368 53.4965H92.4316V27.034H96.1368V53.4965Z" fill="white"/>
<path d="M104.755 53.4965H101.051V27.034H104.755V53.4965Z" fill="white"/>
<path d="M108.348 44.7631C108.348 38.9426 112.242 35.4639 116.853 35.4639C119.726 35.4639 121.654 36.7119 122.75 38.6021H122.826V36.0308H126.53V53.4965H122.826V50.9253H122.75C121.654 52.8155 119.726 54.0635 116.853 54.0635C112.242 54.0641 108.348 50.5866 108.348 44.7631ZM123.016 44.7631C123.016 41.4374 120.899 39.0931 117.647 39.0931C114.396 39.0931 112.279 41.4374 112.279 44.7631C112.279 48.09 114.396 50.4342 117.647 50.4342C120.899 50.4342 123.016 48.09 123.016 44.7631Z" fill="white"/>
<path d="M130.878 44.7631C130.878 39.2073 134.847 35.4639 140.481 35.4639C142.748 35.4639 144.676 36.0691 146.453 37.2412L144.714 40.3781C143.505 39.6224 141.992 39.0555 140.366 39.0555C137.001 39.0555 134.809 41.4744 134.809 44.7637C134.809 48.053 137.001 50.4731 140.366 50.4731C141.992 50.4731 143.505 49.9062 144.714 49.1492L146.453 52.2874C144.676 53.4595 142.748 54.0647 140.481 54.0647C134.847 54.0641 130.878 50.3207 130.878 44.7631Z" fill="white"/>
<path d="M148.342 44.7631C148.342 38.9426 152.236 35.4639 156.848 35.4639C159.721 35.4639 161.648 36.7119 162.745 38.6021H162.82V36.0308H166.524V53.4965H162.82V50.9253H162.745C161.648 52.8155 159.721 54.0635 156.848 54.0635C152.236 54.0641 148.342 50.5866 148.342 44.7631ZM163.01 44.7631C163.01 41.4374 160.893 39.0931 157.642 39.0931C154.391 39.0931 152.273 41.4374 152.273 44.7631C152.273 48.09 154.391 50.4342 157.642 50.4342C160.893 50.4342 163.01 48.09 163.01 44.7631Z" fill="white"/>
<path d="M180.891 39.8495H180.324C176.696 39.8495 174.767 41.5885 174.767 45.747V53.4965H171.063V36.0308H174.767V39.8488H174.844C175.675 37.2412 177.678 35.5028 180.627 35.5028H180.892V39.8495H180.891Z" fill="white"/>
<path d="M188.64 39.1697V48.3183C188.64 49.565 189.169 50.1326 190.454 50.1326H191.362V53.5354H189.66C186.598 53.5354 184.935 51.9099 184.935 49.0364V39.1697H181.835V36.0315H184.935V29.0377H188.64V36.0315H192.193V39.1697H188.64Z" fill="white"/>
<path d="M44.4506 46.2638C43.8686 48.8275 41.7947 50.4198 38.9883 50.4198C35.6613 50.4198 33.3553 48.1891 33.3553 44.7486C33.3553 42.7757 34.1173 41.2041 35.3923 40.2188L34.0728 37.0343L34.5375 38.1537L33.9499 36.7364C31.1861 38.3155 29.4238 41.2216 29.4238 44.748C29.4238 50.1169 33.5065 54.0484 38.9883 54.0484C43.9395 54.0484 47.7481 50.8406 48.4385 46.2632H47.9375L44.4506 46.2638Z" fill="#009FB7"/>
<path d="M82.4269 32.5352C82.161 32.5352 81.89 32.4775 81.6348 32.3552C80.7148 31.9175 80.3241 30.8162 80.7618 29.8956C82.1045 27.0772 83.2346 23.9961 83.4936 22.5443C80.5053 22.1893 70.9302 22.4101 62.3799 22.8786C61.3658 22.9338 60.4922 22.1549 60.4364 21.137C60.3806 20.1192 61.1608 19.2493 62.178 19.1935C62.23 19.1904 67.4917 18.9032 72.9151 18.7614C84.3791 18.4598 85.3644 19.0631 86.016 19.4619C87.8817 20.6052 87.3768 23.2436 86.0454 26.8527C85.1787 29.2007 84.1377 31.3913 84.0932 31.4835C83.7777 32.1476 83.1167 32.5352 82.4269 32.5352Z" fill="#FFC827"/>
<path d="M64.3265 42.5693H41.2254C40.745 42.5693 40.2451 42.311 40.1141 41.9949C40.1134 41.9924 40.1122 41.9911 40.1116 41.9886L29.5023 16.4392L29.5017 16.4398L28.6946 14.4957C28.4262 13.8491 27.6341 13.3204 26.9336 13.3204H25.9296H24.3617H13.9808C12.9617 13.3204 12.1357 14.1464 12.1357 15.1655C12.1357 16.1846 12.9617 17.0105 13.9808 17.0105H24.3617H24.4702C25.167 17.0105 25.9546 17.5348 26.2268 18.1776L36.4554 42.8033C36.4591 42.812 36.461 42.8189 36.4642 42.829L37.3033 44.849C37.625 45.6241 38.5757 46.2588 39.4161 46.2588H40.5706C40.5744 46.2588 40.5775 46.2588 40.5807 46.2588H64.3265C65.3462 46.2588 66.1721 45.4322 66.1721 44.4131C66.1721 43.3965 65.3462 42.5693 64.3265 42.5693Z" fill="#FE4A49"/>
</svg>
