<svg width="42" height="42" viewBox="0 0 42 42" fill="none" xmlns="http://www.w3.org/2000/svg">
<rect x="0.912109" y="0.371094" width="41" height="41" rx="20.5" fill="#FFC827"/>
<g clip-path="url(#clip0_110_730)">
<path d="M29.6621 20.8713C29.6621 21.2771 29.5886 21.6663 29.4577 21.9532C29.3268 22.2401 29.1493 22.4013 28.9642 22.4013H13.61C13.4249 22.4013 13.2474 22.2401 13.1165 21.9532C12.9856 21.6663 12.9121 21.2771 12.9121 20.8713C12.9121 20.4655 12.9856 20.0764 13.1165 19.7894C13.2474 19.5025 13.4249 19.3413 13.61 19.3413H28.9642C29.1493 19.3413 29.3268 19.5025 29.4577 19.7894C29.5886 20.0764 29.6621 20.4655 29.6621 20.8713Z" fill="black"/>
</g>
<defs>
<clipPath id="clip0_110_730">
<rect width="17" height="17" fill="white" transform="translate(12.9121 12.3711)"/>
</clipPath>
</defs>
</svg>
