<svg width="97" height="97" viewBox="0 0 97 97" fill="none" xmlns="http://www.w3.org/2000/svg">
<rect x="0.914062" y="0.481934" width="96" height="96" rx="6" fill="#323345"/>
<path d="M66.7891 29.7944H31.0391C29.9616 29.7944 28.9283 30.2224 28.1664 30.9843C27.4046 31.7462 26.9766 32.7795 26.9766 33.8569V63.1069C26.9766 64.1844 27.4046 65.2177 28.1664 65.9796C28.9283 66.7414 29.9616 67.1694 31.0391 67.1694H66.7891C67.8665 67.1694 68.8998 66.7414 69.6617 65.9796C70.4236 65.2177 70.8516 64.1844 70.8516 63.1069V33.8569C70.8516 32.7795 70.4236 31.7462 69.6617 30.9843C68.8998 30.2224 67.8665 29.7944 66.7891 29.7944ZM65.9766 34.6694V37.9194H31.8516V34.6694H65.9766ZM31.8516 62.2944V42.7944H65.9766V62.2944H31.8516ZM59.4766 47.6694C59.4766 50.4708 58.3637 53.1574 56.3829 55.1382C54.402 57.1191 51.7154 58.2319 48.9141 58.2319C46.1127 58.2319 43.4261 57.1191 41.4452 55.1382C39.4644 53.1574 38.3516 50.4708 38.3516 47.6694C38.3516 47.023 38.6084 46.403 39.0655 45.9459C39.5226 45.4887 40.1426 45.2319 40.7891 45.2319C41.4355 45.2319 42.0555 45.4887 42.5126 45.9459C42.9698 46.403 43.2266 47.023 43.2266 47.6694C43.2266 49.1779 43.8258 50.6245 44.8924 51.6911C45.959 52.7577 47.4056 53.3569 48.9141 53.3569C50.4225 53.3569 51.8691 52.7577 52.9357 51.6911C54.0023 50.6245 54.6016 49.1779 54.6016 47.6694C54.6016 47.023 54.8584 46.403 55.3155 45.9459C55.7726 45.4887 56.3926 45.2319 57.0391 45.2319C57.6855 45.2319 58.3055 45.4887 58.7626 45.9459C59.2198 46.403 59.4766 47.023 59.4766 47.6694Z" fill="url(#paint0_linear_202_862)"/>
<defs>
<linearGradient id="paint0_linear_202_862" x1="48.9141" y1="29.7944" x2="48.9141" y2="67.1694" gradientUnits="userSpaceOnUse">
<stop stop-color="#BBCD4D"/>
<stop offset="0.345" stop-color="#201CFF"/>
<stop offset="0.5" stop-color="#FF0000"/>
<stop offset="0.75" stop-color="#00FF38"/>
<stop offset="0.875" stop-color="#DDFF0B"/>
</linearGradient>
</defs>
</svg>
