<svg width="42" height="42" viewBox="0 0 42 42" fill="none" xmlns="http://www.w3.org/2000/svg">
<rect x="0.912109" y="0.371094" width="41" height="41" rx="20.5" fill="#FFC827"/>
<path d="M29.9121 20.8711C29.9121 21.1416 29.8046 21.4011 29.6134 21.5923C29.4221 21.7836 29.1626 21.8911 28.8921 21.8911H22.4321V28.3511C22.4321 28.6216 22.3246 28.8811 22.1334 29.0723C21.9421 29.2636 21.6826 29.3711 21.4121 29.3711C21.1416 29.3711 20.8821 29.2636 20.6909 29.0723C20.4996 28.8811 20.3921 28.6216 20.3921 28.3511V21.8911H13.9321C13.6616 21.8911 13.4021 21.7836 13.2109 21.5923C13.0196 21.4011 12.9121 21.1416 12.9121 20.8711C12.9121 20.6006 13.0196 20.3411 13.2109 20.1498C13.4021 19.9586 13.6616 19.8511 13.9321 19.8511H20.3921V13.3911C20.3921 13.1206 20.4996 12.8611 20.6909 12.6698C20.8821 12.4786 21.1416 12.3711 21.4121 12.3711C21.6826 12.3711 21.9421 12.4786 22.1334 12.6698C22.3246 12.8611 22.4321 13.1206 22.4321 13.3911V19.8511H28.8921C29.1626 19.8511 29.4221 19.9586 29.6134 20.1498C29.8046 20.3411 29.9121 20.6006 29.9121 20.8711Z" fill="black"/>
</svg>
