<svg width="97" height="97" viewBox="0 0 97 97" fill="none" xmlns="http://www.w3.org/2000/svg">
<rect x="0.914062" y="0.481934" width="96" height="96" rx="6" fill="#323345"/>
<path d="M52.645 53.8288C49.7166 53.8288 47.6387 52.8459 45.709 51.9328C43.1848 50.7388 41.0046 49.7075 36.838 50.7358C35.9526 50.9537 35.0567 50.4129 34.8377 49.5264C34.6187 48.6399 35.1598 47.7444 36.0471 47.5262C41.3552 46.2167 44.4186 47.666 47.122 48.9444C50.2288 50.4137 52.9112 51.683 59.4632 48.7745C60.2991 48.404 61.2745 48.7802 61.645 49.6145C62.0151 50.4489 61.639 51.4258 60.8046 51.7955C57.4337 53.2922 54.8072 53.8288 52.645 53.8288Z" fill="#5B66DA"/>
<path d="M52.645 63.2562C49.7166 63.2562 47.6387 62.2734 45.709 61.3599C43.1848 60.1666 41.0046 59.1354 36.838 60.1632C35.9526 60.3815 35.0567 59.8407 34.8377 58.9539C34.6187 58.0677 35.1598 57.1719 36.0471 56.9532C41.3552 55.6441 44.4186 57.0931 47.122 58.3715C50.2288 59.8407 52.9112 61.1101 59.4632 58.2016C60.2991 57.8311 61.2745 58.2076 61.645 59.0416C62.0151 59.876 61.639 60.8529 60.8046 61.2226C57.4337 62.7204 54.8072 63.2562 52.645 63.2562Z" fill="#5B66DA"/>
<path d="M48.6751 76.9965C47.7744 76.9965 47.0368 76.2732 47.0236 75.369C47.0094 74.4563 47.7373 73.7048 48.6508 73.6909C54.9309 73.5942 60.8833 72.1395 64.1851 69.8948C69.7936 66.0822 69.8293 59.109 69.8656 51.7264C69.878 49.2473 69.8911 46.683 70.1206 44.2028C70.2046 43.2938 71.012 42.6248 71.9184 42.7088C72.8278 42.7928 73.4964 43.5975 73.4124 44.5069C73.196 46.8439 73.1836 49.3343 73.1709 51.7433C73.1315 59.6565 73.0906 67.8383 66.0436 72.6289C62.2366 75.2164 55.5916 76.89 48.7014 76.9962C48.6928 76.9965 48.6841 76.9965 48.6751 76.9965Z" fill="#FE4A49"/>
<path d="M48.6773 76.9967C48.669 76.9967 48.66 76.9967 48.6518 76.9967C41.7608 76.8906 35.1161 75.2169 31.3095 72.6294C24.2618 67.8388 24.2213 59.6559 24.1811 51.7431C24.1691 49.3348 24.1568 46.8444 23.9408 44.5074C23.8564 43.5981 24.5261 42.7933 25.4348 42.7093C26.3389 42.625 27.1481 43.2943 27.2325 44.2033C27.4613 46.6836 27.4748 49.2471 27.4871 51.7266C27.5243 59.1096 27.5588 66.0827 33.1676 69.8953C36.4695 72.1401 42.4219 73.5947 48.7024 73.6914C49.6151 73.7053 50.3438 74.4568 50.3299 75.3696C50.316 76.2733 49.5788 76.9967 48.6773 76.9967Z" fill="#009FB7"/>
<path d="M57.6038 40.2882C56.6903 40.2882 55.95 39.5479 55.95 38.6352C55.95 32.1886 54.5666 28.5076 53.4056 26.5553C52.1186 24.3908 50.4278 23.1987 48.6443 23.1987C44.6756 23.1987 40.5716 28.9726 40.5716 38.6352C40.5716 39.5479 39.8314 40.2882 38.9186 40.2882C38.0059 40.2882 37.2656 39.5479 37.2656 38.6352C37.2656 26.3307 42.9904 19.8931 48.6446 19.8931C51.6405 19.8931 54.3405 21.6589 56.247 24.8659C58.2165 28.1768 59.2568 32.9382 59.2568 38.6356C59.2564 39.5479 58.5165 40.2882 57.6038 40.2882Z" fill="#FFC827"/>
</svg>
