<svg width="21" height="20" viewBox="0 0 21 20" fill="none" xmlns="http://www.w3.org/2000/svg">
<path d="M9.98299 1.09428C10.3267 0.277818 11.4975 0.277819 11.8412 1.09428L13.87 5.91317C14.015 6.25737 14.3427 6.49254 14.7188 6.52233L19.9848 6.93941C20.877 7.01008 21.2388 8.11007 20.559 8.68533L16.5469 12.0806C16.2603 12.3232 16.1351 12.7037 16.2227 13.0663L17.4484 18.1429C17.6561 19.003 16.709 19.6829 15.9451 19.222L11.4366 16.5015C11.1146 16.3072 10.7096 16.3072 10.3876 16.5015L5.8791 19.222C5.11522 19.6829 4.16806 19.003 4.37574 18.1429L5.60153 13.0663C5.68909 12.7037 5.56393 12.3232 5.27736 12.0806L1.26517 8.68533C0.585392 8.11007 0.947177 7.01008 1.8394 6.93941L7.10546 6.52233C7.48161 6.49254 7.80926 6.25737 7.95418 5.91317L9.98299 1.09428Z" fill="#FAFF04"/>
</svg>
